<?xml version="1.0" standalone="no"?><!DOCTYPE svg PUBLIC "-//W3C//DTD SVG 1.1//EN" "http://www.w3.org/Graphics/SVG/1.1/DTD/svg11.dtd"><svg t="1720536535321" class="icon" viewBox="0 0 1024 1024" version="1.1" xmlns="http://www.w3.org/2000/svg" p-id="8936" xmlns:xlink="http://www.w3.org/1999/xlink" width="200" height="200"><path d="M179.2 204.8h716.8v51.2H179.2z" fill="#FFE240" p-id="8937"></path><path d="M692.9152 937.6v-716.8h51.2v716.8z" fill="#FFE240" p-id="8938"></path><path d="M204.8 921.6h691.2v51.2H204.8z" fill="#FFE240" p-id="8939"></path><path d="M819.2 153.6a102.4 102.4 0 0 1 102.4 102.4v665.6a102.4 102.4 0 0 1-102.4 102.4H256a102.4 102.4 0 0 1-102.4-102.4v-76.8H128a25.6 25.6 0 0 1 0-51.2h25.6v-102.4H128a25.6 25.6 0 0 1 0-51.2h25.6v-102.4H128a25.6 25.6 0 0 1 0-51.2h25.6v-102.4H128a25.6 25.6 0 0 1 0-51.2h25.6v-76.8a102.4 102.4 0 0 1 102.4-102.4h563.2z m-76.8 51.2H256a51.2 51.2 0 0 0-51.072 47.36L204.8 256v76.8h25.6a25.6 25.6 0 0 1 0 51.2H204.8v102.4h25.6a25.6 25.6 0 0 1 0 51.2H204.8v102.4h25.6a25.6 25.6 0 0 1 0 51.2H204.8v102.4h25.6a25.6 25.6 0 0 1 0 51.2H204.8v76.8a51.2 51.2 0 0 0 47.36 51.072L256 972.8h486.4V204.8z m76.8 0h-25.6v768h25.6a51.2 51.2 0 0 0 51.072-47.36L870.4 921.6V256a51.2 51.2 0 0 0-51.2-51.2z" fill="#333333" p-id="8940"></path><path d="M463.5904 86.0672V621.824L512 700.4672l49.2032-78.6432V86.0672z" fill="#FFE240" p-id="8941"></path><path d="M537.6 51.2a51.2 51.2 0 0 1 51.2 51.2v506.752a25.6 25.6 0 0 1-2.048 10.0864l-46.5152 108.4672a30.72 30.72 0 0 1-56.4736 0l-46.4896-108.4672a25.6 25.6 0 0 1-2.0736-10.0864V102.4a51.2 51.2 0 0 1 51.2-51.2h51.2z m0 51.2h-51.2v512l18.1504 72.6016a7.68 7.68 0 0 0 14.8992 0L537.6 614.4V102.4z m-51.2 460.8h51.2v51.2h-51.2v-51.2z m0-409.6h51.2v51.2h-51.2V153.6z" fill="#333333" p-id="8942"></path></svg>